<svg width="500" height="500" viewBox="0 0 500 500" fill="none" xmlns="http://www.w3.org/2000/svg">
<path d="M8 283.236C8 382.133 68.842 457 168.669 457C232.963 457 304.969 416.59 348.082 361.401C348.082 361.401 356.136 362.596 361.471 362.822C384.421 363.796 400.084 347.759 405.655 325.682C416.366 283.236 386.91 260.686 386.91 260.686C386.91 161.788 280.546 136 180.719 136C80.8921 136 8 184.338 8 283.236Z" fill="white" stroke="black"/>
<path d="M141 338H102L121.5 368L141 338Z" fill="#586362"/>
<path d="M198.5 454.769V300H249V439C241 444 223 449 223 449C223 449 207.5 454.269 198.5 454.769Z" fill="#A0EEFF"/>
<path d="M86.5 300H48V404.5C48 404.5 59.7324 418.88 67.25 424.25C74.7676 429.62 86.5 437 86.5 437V300Z" fill="#A0EEFF"/>
<path d="M275 289H183.129C183.129 289 204.477 332.63 228.399 332.998C252.707 333.371 275 289 275 289Z" fill="black"/>
<path d="M38 289H103.242C103.242 289 85.9778 325.106 67.2921 323.063C50.4516 321.222 38 289 38 289Z" fill="black"/>
<path d="M275 289H183.129C183.129 289 204.477 332.63 228.399 332.998C252.707 333.371 275 289 275 289Z" stroke="black"/>
<path d="M38 289H103.242C103.242 289 85.9778 325.106 67.2921 323.063C50.4516 321.222 38 289 38 289Z" stroke="black"/>
<path d="M275 289H183.129C183.129 289 204.477 352.462 228.399 352.997C252.707 353.54 275 289 275 289Z" fill="url(#paint0_radial_102_61)"/>
<path d="M38 289H103.242C103.242 289 85.9778 341.517 67.2921 338.546C50.4516 335.868 38 289 38 289Z" fill="url(#paint1_radial_102_61)"/>
<path d="M141 406.5C141 413.956 132.27 420 121.5 420C110.73 420 102 413.956 102 406.5C102 399.044 110.73 393 121.5 393C132.27 393 141 399.044 141 406.5Z" fill="black"/>
<path fill-rule="evenodd" clip-rule="evenodd" d="M19.1695 206.914C20.8262 208.881 59.7276 219.362 88.4358 228.006C122.017 238.117 219.521 249.913 298.424 246.659C336.637 245.083 390.591 240.457 390.591 240.457L440.056 257.512C494.838 269.915 520.225 266.814 445.401 228.006L393.111 197.044C392.44 192.538 391.613 188.198 390.591 184.373C377.923 136.942 366.307 116.961 332.846 91.8702C302.962 69.4609 270.028 55.0224 236.156 46.4914C192.908 35.5987 154.37 45.7211 112.608 63.9448C96.4935 70.977 66.3444 91.0685 42.7771 128.522C16.2453 170.687 16.4985 203.743 19.1695 206.914ZM191.532 228.006L92.6562 210.951C92.6562 210.951 81.6105 197.49 83.2823 188.943C85.2923 178.666 104.682 170.687 104.682 170.687L191.532 184.373C191.532 184.373 215.515 200.571 211.507 209.029C207.5 217.486 191.532 228.006 191.532 228.006Z" fill="#353535"/>
<path d="M390.591 240.457C390.591 240.457 336.637 245.083 298.424 246.659C219.521 249.913 122.017 238.117 88.4358 228.006C59.7276 219.362 20.8262 208.881 19.1695 206.914C16.4985 203.743 16.2453 170.687 42.7771 128.522C66.3444 91.0685 96.4935 70.977 112.608 63.9448C154.37 45.7211 192.908 35.5987 236.156 46.4914C270.028 55.0224 302.962 69.4609 332.846 91.8702C366.307 116.961 377.923 136.942 390.591 184.373C391.613 188.198 392.44 192.538 393.111 197.044M390.591 240.457L440.056 257.512C494.838 269.915 520.225 266.814 445.401 228.006L393.111 197.044M390.591 240.457C390.591 240.457 395.855 215.498 393.111 197.044M92.6562 210.951L191.532 228.006C191.532 228.006 207.5 217.486 211.507 209.029C215.515 200.571 191.532 184.373 191.532 184.373L104.682 170.687C104.682 170.687 85.2923 178.666 83.2823 188.943C81.6105 197.49 92.6562 210.951 92.6562 210.951Z" stroke="black"/>
<defs>
<radialGradient id="paint0_radial_102_61" cx="0" cy="0" r="1" gradientUnits="userSpaceOnUse" gradientTransform="translate(155.169 131.667) rotate(90) scale(241.974 508.48)">
<stop/>
<stop offset="1" stop-opacity="0"/>
</radialGradient>
<radialGradient id="paint1_radial_102_61" cx="0" cy="0" r="1" gradientUnits="userSpaceOnUse" gradientTransform="translate(155.169 131.667) rotate(90) scale(241.974 508.48)">
<stop/>
<stop offset="1" stop-opacity="0"/>
</radialGradient>
</defs>
</svg>
